# xmcd
#
# Track frame offsets: 
#        150
#        23200
#        34012
#        56267
#        76132
#        93400
#        112122
#        127172
#        139282
#        161125
#        182800
#        195497
#        210655
#
# Disc length: 3146 seconds
#
# Revision: 8
# Processed by: cddbd v1.5.2PL0 Copyright (c) Steve Scherf et al.
# Submitted via: ExactAudioCopy v1.0b1
#
DISCID=b40c480d
DTITLE=Cranberries - To The Faithful Departed
DYEAR=1996
DGENRE=Rock
TTITLE0=Hollywood
TTITLE1=Salvation
TTITLE2=When You're Gone
TTITLE3=Free to Decide
TTITLE4=War Child
TTITLE5=Forever Yellow Skies
TTITLE6=The Rebels
TTITLE7=I Just Shot John Lennon
TTITLE8=Electric Blue
TTITLE9=I'm Still Remembering
TTITLE10=Will You Remember?
TTITLE11=Joe
TTITLE12=Bosnia
EXTD=YEAR: 1996 ID3G: 17
EXTT0=
EXTT1=
EXTT2=
EXTT3=
EXTT4=
EXTT5=
EXTT6=
EXTT7=
EXTT8=
EXTT9=
EXTT10=
EXTT11=
EXTT12=
PLAYORDER=
